<svg width="64" height="64" viewBox="0 0 64 64" fill="none" xmlns="http://www.w3.org/2000/svg">
<g clip-path="url(#clip0_426_1466)">
<path d="M61.242 22.2023C62.6606 25.7487 61.8938 29.1746 60.5327 31.8649C57.2591 38.3356 50.5479 39.2252 42.8005 39.2252C37.939 39.2252 33.4855 41.0249 30.0333 38.1247C25.6968 34.4816 22.9404 29.0185 22.9404 22.9116C22.9404 15.8573 26.4869 11.563 32.1612 9.43511C35.2367 7.48017 37.1262 3.05151 42.8005 3.05151C53.7689 3.05151 61.242 11.2339 61.242 22.2023Z" fill="white"/>
<path d="M7.78491 38.899C8.83628 36.4633 10.8947 35.1532 12.8814 34.4947C17.66 32.9108 21.372 35.7481 25.1523 39.5283C27.5244 41.9005 30.5822 43.1887 30.8409 46.299C31.1657 50.206 29.8248 54.2368 26.8225 57.2392C23.3544 60.7073 19.5127 61.0881 15.6978 59.3655C13.236 58.8259 10.1368 60.0813 7.36808 57.3125C2.01616 51.9606 2.39248 44.2915 7.78491 38.899Z" fill="white"/>
<path d="M53.147 48.66C54.0391 48.7586 54.6292 49.3244 54.9962 49.9358C55.8788 51.4064 55.2042 52.9871 54.2194 54.6928C53.6015 55.7632 53.3966 56.9522 52.3757 57.3762C51.0932 57.9088 49.6464 57.8826 48.4207 57.175C47.0048 56.3575 46.5937 55.0791 46.8879 53.5832C46.8865 52.6795 46.2378 51.7503 46.9591 50.501C48.3533 48.0861 50.9455 47.3889 53.147 48.66Z" fill="white"/>
<path d="M5.86165 17.0967C4.4597 16.008 3.97926 14.4518 3.91228 13.0505C3.75118 9.6803 6.28912 7.73886 9.4569 5.90994C11.4447 4.76228 12.8486 2.98852 14.9323 3.33775C17.5497 3.77643 19.9429 5.31873 21.3582 7.77014C22.9931 10.6018 22.5383 13.1629 20.7113 15.3566C19.9068 16.8673 20.1606 19.0911 17.8405 20.4307C13.3556 23.02 8.40367 21.4996 5.86165 17.0967Z" fill="white"/>
</g>
<defs>
<clipPath id="clip0_426_1466">
<rect width="64" height="64" fill="white"/>
</clipPath>
</defs>
</svg>
