<svg width="64" height="64" viewBox="0 0 64 64" fill="none" xmlns="http://www.w3.org/2000/svg">
	<path
		d="M52 25.5C53 28 52.4594 30.415 51.5 32.3115C49.1923 36.8728 44.4614 37.5 39 37.5C35.573 37.5 32.4335 38.7686 30 36.7242C26.9431 34.1561 25 30.305 25 26C25 21.0272 27.5 18 31.5 16.5C33.668 15.1219 35 12 39 12C46.732 12 52 17.768 52 25.5Z"
		fill="currentColor"
	/>
	<path
		d="M14.3162 37.2701C15.0573 35.5531 16.5084 34.6295 17.9089 34.1653C21.2774 33.0488 23.8942 35.0489 26.559 37.7137C28.2312 39.3859 30.3868 40.294 30.5691 42.4865C30.7981 45.2407 29.8528 48.0822 27.7364 50.1986C25.2916 52.6434 22.5835 52.9118 19.8943 51.6975C18.1589 51.3172 15.9741 52.2021 14.0224 50.2503C10.2496 46.4776 10.5149 41.0714 14.3162 37.2701Z"
		fill="currentColor"
	/>
	<path
		d="M46.2935 44.1509C46.9224 44.2204 47.3384 44.6193 47.5971 45.0503C48.2192 46.0869 47.7437 47.2012 47.0495 48.4036C46.6139 49.1581 46.4695 49.9964 45.7498 50.2952C44.8458 50.6707 43.8258 50.6522 42.9618 50.1534C41.9637 49.5771 41.6739 48.6759 41.8813 47.6214C41.8803 46.9844 41.423 46.3294 41.9315 45.4487C42.9143 43.7464 44.7416 43.2549 46.2935 44.1509Z"
		fill="currentColor"
	/>
	<path
		d="M12.9608 21.9009C11.9725 21.1335 11.6338 20.0364 11.5866 19.0487C11.473 16.6729 13.2621 15.3043 15.4952 14.015C16.8964 13.206 17.8861 11.9556 19.3549 12.2018C21.2001 12.511 22.8871 13.5983 23.8848 15.3263C25.0373 17.3225 24.7166 19.1278 23.4287 20.6742C22.8616 21.7392 23.0405 23.3069 21.405 24.2511C18.2435 26.0764 14.7527 25.0047 12.9608 21.9009Z"
		fill="currentColor"
	/>
</svg>
