<svg width="64" height="64" viewBox="0 0 64 64" fill="none" xmlns="http://www.w3.org/2000/svg">
<g clip-path="url(#clip0_215_2)">
<path d="M27.582 8.01408C30.7315 19.8851 19.8852 30.7315 8.0141 27.582L6.71566 27.2375C3.73518 26.4468 2.73255 22.7233 4.91297 20.5429L20.5429 4.91295C22.7233 2.73252 26.4468 3.73516 27.2376 6.71564L27.582 8.01408Z" stroke="white" stroke-width="5.44"/>
<path d="M56.3621 27.582C44.491 30.7314 33.6447 19.8851 36.7941 8.01404L37.1386 6.7156C37.9294 3.73512 41.6529 2.73249 43.8333 4.91291L59.4632 20.5428C61.6436 22.7232 60.641 26.4468 57.6605 27.2375L56.3621 27.582Z" stroke="white" stroke-width="5.44"/>
<path d="M36.7941 56.362C33.6447 44.491 44.491 33.6446 56.3621 36.7941L57.6605 37.1386C60.641 37.9293 61.6436 41.6528 59.4632 43.8332L43.8333 59.4632C41.6528 61.6436 37.9293 60.6409 37.1386 57.6605L36.7941 56.362Z" stroke="white" stroke-width="5.44"/>
<path d="M8.01408 36.7941C19.8851 33.6447 30.7315 44.491 27.582 56.3621L27.2375 57.6605C26.4468 60.641 22.7233 61.6436 20.5429 59.4632L4.91295 43.8333C2.73252 41.6528 3.73516 37.9293 6.71564 37.1386L8.01408 36.7941Z" stroke="white" stroke-width="5.44"/>
</g>
<defs>
<clipPath id="clip0_215_2">
<rect width="64" height="64" fill="white"/>
</clipPath>
</defs>
</svg>
