<svg width="64" height="64" viewBox="0 0 64 64" fill="none" xmlns="http://www.w3.org/2000/svg">
	<path
		d="M29.1987 34.797C29.3495 34.8158 29.4831 34.8265 29.6404 34.909C29.8073 34.9965 29.8886 35.0788 29.9979 35.231C30.1188 35.3994 30.1574 35.5193 30.196 35.7222C30.2395 35.9512 30.2251 36.0906 30.1761 36.3185C30.1205 36.5771 30.0484 36.7173 29.9033 36.9393C29.7392 37.1904 29.6099 37.3121 29.3705 37.4948C29.1017 37.7 28.9212 37.784 28.6005 37.8948C28.2432 38.0182 28.0238 38.0475 27.6454 38.0582C27.227 38.0699 26.9861 38.0311 26.5825 37.9212C26.1397 37.8006 25.8989 37.6857 25.5094 37.4451C25.0846 37.1828 24.8682 36.9905 24.5347 36.6213C24.1732 36.2211 24.0056 35.9575 23.7695 35.4745C23.515 34.9538 23.419 34.6323 23.3171 34.0629C23.2077 33.4519 23.202 33.0926 23.2627 32.475C23.3274 31.8153 23.4246 31.4438 23.6647 30.8247C23.9202 30.1659 24.1253 29.8116 24.5478 29.2428C24.9959 28.6394 25.3053 28.3331 25.8979 27.8669C26.5244 27.374 26.9256 27.1455 27.6606 26.8311C28.4356 26.4996 28.9072 26.3752 29.7427 26.2538C30.6215 26.1262 31.1348 26.1263 32.0171 26.2274C32.9429 26.3335 33.4632 26.4705 34.3301 26.8087C35.2378 27.1628 35.7269 27.4394 36.5121 28.012C37.3327 28.6103 37.7519 29.0189 38.3899 29.805C39.0555 30.6249 39.3681 31.1472 39.7995 32.108C40.2487 33.1085 40.4233 33.7163 40.5993 34.797C40.7824 35.9206 40.7953 36.5774 40.6829 37.71C40.5661 38.8861 40.4038 39.549 39.9884 40.6571C39.5576 41.8062 39.2185 42.4289 38.5067 43.4324C37.7695 44.4716 37.2645 45.0076 36.2849 45.8284C35.2715 46.6774 34.6242 47.0833 33.4263 47.6513C32.1885 48.2382 31.4341 48.4771 30.0863 48.7358C28.6951 49.0028 27.8787 49.0473 26.4643 48.9585C25.0056 48.867 24.1792 48.7016 22.7912 48.2494C21.3611 47.7835 20.5805 47.4067 19.3155 46.5997C18.0132 45.7688 17.3345 45.1936 16.286 44.0654C15.2076 42.905 14.6826 42.1588 13.9346 40.7676C13.1658 39.3376 12.8387 38.4613 12.4588 36.8862C12.0685 35.2685 11.9723 34.3139 12.0063 32.6512C12.0412 30.9447 12.1947 29.9719 12.6626 28.3288C13.1425 26.6434 13.7563 25.5506 14.4414 24.2044C15.304 22.9391 16.0008 21.8378 17.2807 20.5643C18.592 19.2596 19.443 18.6135 21.0437 17.6757C22.6826 16.7154 23.694 16.2908 25.5243 15.7674C27.3973 15.2318 28.5095 15.0674 30.4586 15.0128C32.4522 14.957 33.596 15.0758 35.5401 15.5155C37.5275 15.9649 38.6288 16.3718 40.4388 17.2989C42.2884 18.2461 43.2724 18.927 44.8228 20.3018C46.4064 21.7059 47.2032 22.6277 48.3804 24.3789C49.5822 26.1666 50.1314 27.2789 50.842 29.3069C51.567 31.3765 51.828 32.6135 52 34.797"
		stroke="currentColor"
		stroke-width="4"
		stroke-linecap="round"
	/>
</svg>
