<svg width="64" height="64" viewBox="0 0 64 64" fill="none" xmlns="http://www.w3.org/2000/svg">
<path d="M27.9381 36.0556C28.1568 36.0829 28.3505 36.0984 28.5786 36.218C28.8206 36.3449 28.9385 36.4642 29.097 36.685C29.2723 36.9292 29.3282 37.1029 29.3842 37.3971C29.4473 37.7292 29.4264 37.9313 29.3553 38.2618C29.2748 38.6367 29.1702 38.8401 28.9598 39.162C28.7219 39.5261 28.5343 39.7025 28.1872 39.9674C27.7974 40.265 27.5358 40.3868 27.0708 40.5474C26.5526 40.7264 26.2345 40.7689 25.6858 40.7843C25.0791 40.8014 24.7298 40.7451 24.1447 40.5857C23.5025 40.4108 23.1535 40.2442 22.5886 39.8954C21.9727 39.515 21.6589 39.2363 21.1753 38.7009C20.6511 38.1206 20.4082 37.7384 20.0658 37.0381C19.6967 36.283 19.5576 35.8168 19.4098 34.9912C19.2512 34.1053 19.243 33.5842 19.3308 32.6888C19.4248 31.7321 19.5657 31.1934 19.9138 30.2959C20.2843 29.3406 20.5817 28.8268 21.1943 28.002C21.844 27.1271 22.2927 26.6829 23.1519 26.007C24.0604 25.2923 24.6421 24.9609 25.7078 24.5051C26.8316 24.0244 27.5154 23.844 28.727 23.668C30.0012 23.4829 30.7454 23.483 32.0248 23.6297C33.3672 23.7836 34.1216 23.9822 35.3786 24.4726C36.6948 24.9861 37.4041 25.3871 38.5426 26.2174C39.7323 27.085 40.3403 27.6774 41.2654 28.8172C42.2304 30.0061 42.6838 30.7634 43.3092 32.1565C43.9606 33.6073 44.2138 34.4887 44.469 36.0556C44.7345 37.6848 44.7532 38.6372 44.5902 40.2795C44.4209 41.9848 44.1856 42.946 43.5832 44.5528C42.9586 46.2189 42.4668 47.1219 41.4347 48.5769C40.3658 50.0838 39.6336 50.861 38.2131 52.0511C36.7437 53.2822 35.8051 53.8708 34.0681 54.6943C32.2733 55.5454 31.1795 55.8918 29.2252 56.2668C27.2079 56.654 26.0241 56.7185 23.9732 56.5898C21.8582 56.4571 20.6599 56.2173 18.6472 55.5616C16.5735 54.8861 15.4418 54.3397 13.6075 53.1695C11.7191 51.9648 10.735 51.1307 9.21475 49.4949C7.65101 47.8123 6.88978 46.7303 5.80517 44.713C4.69037 42.6395 4.21614 41.3688 3.66521 39.085C3.09936 36.7393 2.95988 35.3552 3.00919 32.9443C3.05979 30.4698 3.28236 29.0593 3.96076 26.6767C4.65659 24.2329 5.54661 22.6484 6.53998 20.6964C7.79081 18.8617 8.80112 17.2648 10.657 15.4182C12.5584 13.5264 13.7924 12.5896 16.1134 11.2297C18.4898 9.83731 19.9563 9.22165 22.6102 8.46269C25.3261 7.68602 26.9387 7.4477 29.765 7.36858C32.6556 7.28767 34.3142 7.45993 37.1331 8.09739C40.0149 8.74906 41.6117 9.33908 44.2363 10.6833C46.9182 12.0569 48.345 13.0442 50.5931 15.0376C52.8892 17.0736 54.0446 18.4102 55.7516 20.9493C57.4942 23.5416 58.2906 25.1543 59.3208 28.095C60.3722 31.0959 60.7506 32.8896 61 36.0556" stroke="white" stroke-width="5.8" stroke-linecap="round"/>
</svg>
