<svg width="64" height="64" viewBox="0 0 64 64" fill="none" xmlns="http://www.w3.org/2000/svg">
	<path
		d="M12 32C12 43.0457 20.9543 52 32 52V12C28.9607 12 26.0797 12.678 23.5 13.8909C16.7045 17.0861 12 23.9936 12 32Z"
		fill="currentColor"
	/>
	<path
		d="M32 52C20.9543 52 12 43.0457 12 32C12 23.9936 16.7045 17.0861 23.5 13.8909C26.0797 12.678 28.9607 12 32 12M32 52C34.0904 52 36.1059 51.6793 38 51.0844C46.1142 48.5359 52 40.9553 52 32C52 23.0447 46.1142 15.4641 38 12.9156C36.1059 12.3207 34.0904 12 32 12M32 52V12"
		stroke="currentColor"
		stroke-width="4"
	/>
</svg>
