<svg width="64" height="64" viewBox="0 0 64 64" fill="none" xmlns="http://www.w3.org/2000/svg">
<g clip-path="url(#clip0_426_1471)">
<path d="M3 32C3 48.0163 15.9837 61 32 61V3C27.593 3 23.4155 3.98304 19.675 5.74181C9.82156 10.3748 3 20.3908 3 32Z" fill="white"/>
<path d="M32 61C15.9837 61 3 48.0163 3 32C3 20.3908 9.82156 10.3748 19.675 5.74181C23.4155 3.98304 27.593 3 32 3M32 61C35.0311 61 37.9536 60.535 40.7 59.6724C52.4656 55.977 61 44.9852 61 32C61 19.0148 52.4656 8.02299 40.7 4.32763C37.9536 3.46503 35.0311 3 32 3M32 61V3" stroke="white" stroke-width="5.8"/>
</g>
<defs>
<clipPath id="clip0_426_1471">
<rect width="64" height="64" fill="white"/>
</clipPath>
</defs>
</svg>
