<svg width="512" height="512" viewBox="0 0 512 512" fill="none" xmlns="http://www.w3.org/2000/svg">
<path fill-rule="evenodd" clip-rule="evenodd" d="M442.797 256.399C442.797 359.344 359.344 442.797 256.399 442.797C153.454 442.797 70 359.344 70 256.399C70 153.454 153.454 70 256.399 70C297.117 70 334.786 83.0562 365.448 105.211C356.343 118.211 351 134.04 351 151.117C351 195.364 386.869 231.233 431.117 231.233C434.473 231.233 437.782 231.027 441.03 230.626C442.195 239.05 442.797 247.654 442.797 256.399ZM486.085 209.403C489.175 224.586 490.797 240.303 490.797 256.399C490.797 385.853 385.853 490.797 256.399 490.797C126.944 490.797 22 385.853 22 256.399C22 126.944 126.944 22 256.399 22C312.898 22 364.729 41.99 405.204 75.2832C413.332 72.5066 422.048 71 431.117 71C475.364 71 511.233 106.869 511.233 151.117C511.233 174.084 501.569 194.794 486.085 209.403Z" fill="white"/>
</svg>
