<svg width="512" height="512" viewBox="0 0 512 512" fill="none" xmlns="http://www.w3.org/2000/svg">
<path fill-rule="evenodd" clip-rule="evenodd" d="M256 453C364.8 453 453 364.8 453 256C453 229.834 447.899 204.859 438.636 182.016C434.687 182.664 430.633 183 426.5 183C385.355 183 352 149.645 352 108.5C352 100.631 353.22 93.0468 355.481 85.9265C326.285 68.8115 292.288 59 256 59C147.2 59 59 147.2 59 256C59 364.8 147.2 453 256 453ZM481.12 159.166C493.457 145.872 501 128.067 501 108.5C501 67.3548 467.645 34 426.5 34C410.786 34 396.208 38.8653 384.19 47.1718C346.898 24.2313 302.994 11 256 11C120.69 11 11 120.69 11 256C11 391.31 120.69 501 256 501C391.31 501 501 391.31 501 256C501 221.606 493.913 188.868 481.12 159.166ZM343 256C343 304.049 304.049 343 256 343C248.338 343 240.908 342.01 233.83 340.15C233.943 338.782 234 337.397 234 336C234 308.386 211.614 286 184 286C180.8 286 177.67 286.301 174.638 286.875C170.995 277.28 169 266.873 169 256C169 207.951 207.951 169 256 169C304.049 169 343 207.951 343 256ZM136.806 319.443C126.718 300.53 121 278.933 121 256C121 181.442 181.442 121 256 121C330.558 121 391 181.442 391 256C391 330.558 330.558 391 256 391C238.109 391 221.031 387.52 205.406 381.199C198.917 384.278 191.66 386 184 386C156.386 386 134 363.614 134 336C134 330.197 134.989 324.625 136.806 319.443Z" fill="white"/>
</svg>
