<svg width="96" height="48" viewBox="0 0 96 48" fill="none" xmlns="http://www.w3.org/2000/svg">
<path d="M51.9163 13.1052L67.1804 23.3192C68.7293 24.3472 69.5806 26.7258 69.1577 28.5138L66.9716 37.2132C66.5487 38.9958 64.6263 40.5104 62.7039 40.5104H43.4852L45.836 31.2149H57.42C58.2713 31.2149 58.914 30.6189 59.0732 30.0776C59.2875 29.3722 59.1227 28.8364 58.2713 28.2404L42.8975 17.8623C41.3485 16.8343 40.4917 14.4557 40.9201 12.6732L43.1062 3.91904C43.5346 2.13649 45.4021 0.621877 47.2696 0.621877L69.3225 0.600006L69.317 0.621877L66.9661 9.86267L66.9607 9.89548H66.9497L52.6633 9.86267C51.812 9.86267 51.1694 10.1853 50.9551 11.0492C50.7409 11.9186 51.0595 12.5638 51.9163 13.1052Z" fill="white"/>
<path fill-rule="evenodd" clip-rule="evenodd" d="M29.8854 31.2095C29.2428 31.2095 28.6551 30.7229 28.4958 30.1269L26.8974 23.2646L34.2136 19.5902C35.9767 18.7262 37.4707 16.9437 38.0035 14.7784L40.5136 5.05094C41.1563 2.61771 39.6074 0.616454 37.0972 0.616454H10.035L0 40.4995H9.50225L11.9575 30.8268L18.3619 27.5843L20.6578 37.2024C21.0862 38.9849 22.8988 40.4995 24.7663 40.4995H32.3461L34.6915 31.204H29.8854V31.2095ZM14.8905 19.2129L14.9619 18.9231L17.2359 9.86272H28.2321C29.0835 9.86272 29.6712 10.1853 29.4625 10.8907C29.3032 11.432 28.9297 12.0827 27.8586 12.6186L14.8905 19.2129Z" fill="white"/>
<path d="M39.3658 31.2095L37.0149 40.5049H38.5913L40.9586 31.2095H39.3658Z" fill="white"/>
<path d="M36.2184 31.2095H37.8278L35.455 40.5049H33.8181L36.2129 31.2259L36.2184 31.2095Z" fill="white"/>
<path d="M42.4964 31.2095L40.1456 40.5049H41.7989L44.1497 31.2095H42.4964Z" fill="white"/>
<path d="M76.4904 9.8627L78.8303 0.621903H77.2868L74.936 9.8627H76.4904Z" fill="white"/>
<path d="M75.6939 0.621903L73.3595 9.8627H71.7996L74.1615 0.621903H75.6939Z" fill="white"/>
<path d="M72.5466 0.621877H72.5082L72.5137 0.600006H70.8659L70.8604 0.621877L68.5205 9.86267L68.515 9.89548H70.1628L70.1683 9.86267L72.5466 0.621877Z" fill="white"/>
<path d="M80.5165 0.621877L80.522 0.600006L90.0243 0.621877L79.9343 40.5049H70.3277L80.4781 0.621877H80.5165Z" fill="white"/>
<path d="M50.2006 45.2566C50.2116 45.3933 50.2116 45.5136 50.2116 45.6175V47.3946H49.5964V44.1029H50.0798L51.799 46.0385C51.8449 46.0913 51.8817 46.135 51.911 46.1697C51.9271 46.1888 51.941 46.2053 51.9527 46.219L51.9637 46.2299C51.9615 46.1447 51.9592 46.0714 51.9573 46.0104C51.9547 45.9228 51.9527 45.8607 51.9527 45.8253V44.0974H52.5624V47.3891H52.0791L50.283 45.3605C50.2794 45.3557 50.275 45.3502 50.2701 45.344C50.2657 45.3385 50.2608 45.3325 50.2555 45.326C50.2396 45.3064 50.2198 45.2821 50.2006 45.2566Z" fill="white"/>
<path fill-rule="evenodd" clip-rule="evenodd" d="M2.64529 47.3945L1.66211 46.1588H1.2227V47.3945H0.563588V44.1029H2.70022C2.92542 44.1029 3.07921 44.1521 3.16709 44.256C3.25497 44.3598 3.29891 44.5239 3.29891 44.7426V45.5136C3.29891 45.7378 3.25497 45.8963 3.16709 46.0002C3.07921 46.1041 2.91992 46.1533 2.70022 46.1533H2.43657L3.56256 47.3891H2.64529V47.3945ZM2.65078 44.9394C2.65078 44.8465 2.63431 44.7809 2.59586 44.7426C2.5629 44.7098 2.51347 44.6934 2.44756 44.6934H1.2227V45.5901H2.44756C2.51347 45.5901 2.5629 45.5737 2.60135 45.5354C2.63431 45.4972 2.65078 45.4316 2.65078 45.3386V44.9394Z" fill="white"/>
<path fill-rule="evenodd" clip-rule="evenodd" d="M7.28099 47.2305C7.1986 47.3399 7.02283 47.3945 6.75369 47.3945H4.96309C4.69395 47.3945 4.51819 47.3399 4.4358 47.2305C4.35341 47.1211 4.30947 46.9134 4.30947 46.6181V44.8902C4.30947 44.5949 4.35341 44.3872 4.4358 44.2778C4.51819 44.163 4.69944 44.1083 4.96309 44.1083H6.75369C7.02283 44.1083 7.1986 44.163 7.28099 44.2778C7.36338 44.3926 7.40732 44.5949 7.40732 44.8902V46.6181C7.40732 46.9134 7.36338 47.1211 7.28099 47.2305ZM6.73721 44.7098H4.96859V46.7657H6.73721V44.7098Z" fill="white"/>
<path fill-rule="evenodd" clip-rule="evenodd" d="M10.4888 47.4C10.7579 47.4 10.9557 47.3453 11.0765 47.236C11.1974 47.1266 11.2578 46.9626 11.2578 46.7548V46.3338C11.2578 45.9729 11.115 45.7651 10.8293 45.7049C11.104 45.6503 11.2413 45.4643 11.2413 45.1527V44.7535C11.2413 44.5293 11.1973 44.3708 11.1095 44.2669C11.0216 44.163 10.8678 44.1083 10.6426 44.1083H8.50046V47.4H10.4888ZM10.5712 46.0275C10.6096 46.0768 10.6261 46.1478 10.6261 46.2572H10.6316V46.5087C10.6316 46.6181 10.6151 46.6946 10.5767 46.7329C10.5382 46.7712 10.4833 46.7931 10.4064 46.7931H9.16507V45.9729H10.4064C10.4833 45.9729 10.5382 45.9893 10.5712 46.0275ZM10.5492 44.6988C10.5877 44.7371 10.6096 44.7973 10.6096 44.8793V45.1964C10.6096 45.2784 10.5932 45.3386 10.5547 45.3714C10.5218 45.4042 10.4668 45.4206 10.4009 45.4206H9.15958V44.6551H10.4009C10.4668 44.6551 10.5163 44.666 10.5492 44.6988Z" fill="white"/>
<path d="M12.2519 47.3945V44.1083H14.8499V44.677H12.922V45.3933H14.048V45.9674H12.922V46.7657H14.8719V47.3945H12.2519Z" fill="white"/>
<path fill-rule="evenodd" clip-rule="evenodd" d="M16.9151 46.1588L17.8983 47.3945V47.3891H18.8156L17.6896 46.1533H17.9532C18.1729 46.1533 18.3322 46.1041 18.4201 46.0002C18.508 45.8963 18.5519 45.7378 18.5519 45.5136V44.7426C18.5519 44.5239 18.508 44.3598 18.4201 44.256C18.3322 44.1521 18.1784 44.1029 17.9532 44.1029H15.8166V47.3945H16.4757V46.1588H16.9151ZM17.8489 44.7426C17.8873 44.7809 17.9038 44.8465 17.9038 44.9394V45.3386C17.9038 45.4316 17.8873 45.4972 17.8543 45.5354C17.8159 45.5737 17.7665 45.5901 17.7005 45.5901H16.4757V44.6934H17.7005C17.7665 44.6934 17.8159 44.7098 17.8489 44.7426Z" fill="white"/>
<path d="M20.7271 44.7043V47.3945H20.057V44.7043H18.942V44.1083H21.8531V44.7043H20.7271Z" fill="white"/>
<path d="M24.5335 47.4C24.8027 47.4 24.9784 47.3453 25.0663 47.2305C25.1542 47.1157 25.1981 46.9134 25.1926 46.6181V46.1643C25.1926 45.869 25.1542 45.6612 25.0663 45.5519C24.9784 45.437 24.8027 45.3823 24.5335 45.3823H23.0615V44.6934H24.5555V45.0925L25.1542 44.9012V44.8301C25.1542 44.5622 25.1102 44.3762 25.0224 44.2669C24.9345 44.1575 24.7587 44.1029 24.5006 44.1029H23.1164C22.8528 44.1029 22.6715 44.1575 22.5891 44.2724C22.5067 44.3817 22.4628 44.5895 22.4628 44.8848V45.2511C22.4628 45.5464 22.5067 45.7487 22.5891 45.8635C22.6715 45.9784 22.8473 46.033 23.1164 46.033H24.5829V46.7657H22.9681V46.3556L22.3639 46.5251V46.6181C22.3639 46.9134 22.4078 47.1211 22.4957 47.2305C22.5836 47.3453 22.7594 47.4 23.0285 47.4H24.5335Z" fill="white"/>
<path d="M30.7182 47.2305C30.6303 47.3453 30.4545 47.4 30.1854 47.4H28.6804C28.4113 47.4 28.2355 47.3453 28.1476 47.2305C28.0598 47.1211 28.0158 46.9134 28.0158 46.6181V46.5251L28.62 46.3556V46.7657H30.2403V46.033H28.7738C28.5047 46.033 28.3289 45.9784 28.241 45.8635C28.1531 45.7487 28.1147 45.5464 28.1147 45.2511V44.8848C28.1147 44.5895 28.1586 44.3817 28.241 44.2724C28.3234 44.1575 28.5047 44.1029 28.7738 44.1029H30.1579C30.4161 44.1029 30.5919 44.1575 30.6797 44.2669C30.7676 44.3762 30.8116 44.5622 30.8116 44.8301V44.9012L30.2129 45.0925V44.6934H28.7134V45.3823H30.1854C30.4545 45.3823 30.6303 45.437 30.7182 45.5519C30.8061 45.6612 30.8445 45.869 30.8445 46.1643V46.6181C30.8445 46.9134 30.8061 47.1157 30.7182 47.2305Z" fill="white"/>
<path fill-rule="evenodd" clip-rule="evenodd" d="M34.0577 46.1205C34.2775 46.1205 34.4367 46.0713 34.5246 45.9674C34.6125 45.8635 34.6564 45.6995 34.6564 45.4753V44.7426C34.6564 44.5239 34.6125 44.3598 34.5246 44.256C34.4367 44.1521 34.2829 44.1029 34.0577 44.1029H31.9211V47.3945H32.5802V46.1205H34.0577ZM33.9479 44.7426C33.9863 44.7809 34.0028 44.8465 34.0028 44.9394V45.2949C34.0028 45.3878 33.9863 45.4534 33.9534 45.4917C33.9204 45.53 33.8655 45.5464 33.7996 45.5464H32.5747V44.6934H33.7996C33.8655 44.6934 33.9149 44.7098 33.9479 44.7426Z" fill="white"/>
<path fill-rule="evenodd" clip-rule="evenodd" d="M37.3093 47.3945L37.0182 46.6782H35.5736L35.288 47.3945H34.6179L36.0076 44.1029H36.6502L38.0563 47.3945H37.3093ZM36.3042 44.8793L35.8153 46.0713H36.771L36.3042 44.8793Z" fill="white"/>
<path d="M40.6708 47.3945C40.9344 47.3945 41.1102 47.3399 41.1981 47.2305C41.286 47.1211 41.3299 46.9134 41.3244 46.6126V46.2244L40.6543 46.0385V46.7657H39.2262V44.7098H40.6543V45.3441L41.3244 45.2019V44.8902C41.3244 44.5949 41.2805 44.3926 41.1981 44.2778C41.1102 44.163 40.9399 44.1083 40.6708 44.1083H39.2152C38.9461 44.1083 38.7648 44.163 38.6825 44.2778C38.6001 44.3872 38.5561 44.5949 38.5561 44.8902V46.6181C38.5561 46.9134 38.6001 47.1211 38.6825 47.2305C38.7703 47.3399 38.9461 47.3945 39.2152 47.3945H40.6708Z" fill="white"/>
<path d="M42.3956 47.3945V44.1083H44.9936V44.677H43.0657V45.3933H44.1917V45.9674H43.0657V46.7657H45.0156V47.3945H42.3956Z" fill="white"/>
<path d="M47.7893 44.1083H48.4594V47.4H47.7893V44.1083Z" fill="white"/>
<path fill-rule="evenodd" clip-rule="evenodd" d="M55.1824 47.4C55.6713 47.4 56.0228 47.3125 56.2315 47.1375C56.5885 46.8368 56.7698 46.372 56.7698 45.7323C56.7698 45.2183 56.6489 44.8191 56.4073 44.5348C56.1656 44.2505 55.8086 44.1083 55.3307 44.1083H53.7104V47.4H55.1824ZM55.3307 44.7043C55.5614 44.7043 55.7482 44.7918 55.88 44.9613C56.0173 45.1308 56.0832 45.3823 56.0832 45.7159C56.0832 46.0932 56.0008 46.3611 55.8415 46.5197C55.6822 46.6782 55.4186 46.7602 55.0616 46.7602H54.3805V44.7043H55.3307Z" fill="white"/>
<path d="M60.4334 47.2305C60.351 47.3399 60.1752 47.3945 59.9061 47.3945H58.3682C58.099 47.3945 57.9288 47.3399 57.8409 47.2305C57.753 47.1211 57.7146 46.9134 57.7146 46.6181V44.1083H58.3846V46.7657H59.9006V44.1083H60.5652V46.6181C60.5597 46.9134 60.5158 47.1211 60.4334 47.2305Z" fill="white"/>
<path d="M63.7948 47.4C64.064 47.4 64.2397 47.3453 64.3276 47.2305C64.4155 47.1157 64.454 46.9134 64.4485 46.6181V46.1643C64.4485 45.869 64.41 45.6612 64.3221 45.5519C64.2343 45.437 64.0585 45.3823 63.7894 45.3823H62.3173V44.6934H63.8168V45.0925L64.4155 44.9012V44.8301C64.4155 44.5622 64.3716 44.3762 64.2837 44.2669C64.1958 44.1575 64.02 44.1029 63.7619 44.1029H62.3777C62.1141 44.1029 61.9328 44.1575 61.8505 44.2724C61.7681 44.3817 61.7241 44.5895 61.7241 44.8848V45.2511C61.7241 45.5464 61.7681 45.7487 61.8505 45.8635C61.9328 45.9784 62.1086 46.033 62.3777 46.033H63.8443V46.7657H62.2294V46.3556L61.6253 46.5251V46.6181C61.6253 46.9134 61.6692 47.1211 61.7571 47.2305C61.845 47.3453 62.0207 47.4 62.2899 47.4H63.7948Z" fill="white"/>
<path d="M66.7609 44.7043V47.3945H66.0908V44.7043H64.9758V44.1083H67.8869V44.7043H66.7609Z" fill="white"/>
<path fill-rule="evenodd" clip-rule="evenodd" d="M69.5731 46.1588L70.5562 47.3945V47.3891H71.4735L70.3475 46.1533H70.6112C70.8309 46.1533 70.9902 46.1041 71.078 46.0002C71.1659 45.8963 71.2099 45.7378 71.2099 45.5136V44.7426C71.2099 44.5239 71.1659 44.3598 71.078 44.256C70.9902 44.1521 70.8364 44.1029 70.6112 44.1029H68.4745V47.3945H69.1336V46.1588H69.5731ZM70.5123 44.7426C70.5507 44.7809 70.5672 44.8465 70.5672 44.9394V45.3386C70.5672 45.4316 70.5508 45.4972 70.5178 45.5354C70.4848 45.5737 70.4299 45.5901 70.364 45.5901H69.1391V44.6934H70.364C70.4299 44.6934 70.4793 44.7098 70.5123 44.7426Z" fill="white"/>
<path d="M72.9345 44.1083H72.2644V47.4H72.9345V44.1083Z" fill="white"/>
<path d="M74.0771 44.1083V47.3945H76.6971V46.7657H74.7472V45.9674H75.8732V45.3933H74.7472V44.677H76.6751V44.1083H74.0771Z" fill="white"/>
<path d="M80.2672 47.2305C80.1793 47.3453 80.0035 47.4 79.7344 47.4H78.2294C77.9603 47.4 77.7845 47.3453 77.6966 47.2305C77.6088 47.1211 77.5703 46.9134 77.5703 46.6181V46.5251L78.1745 46.3556V46.7657H79.7893V46.033H78.3228C78.0537 46.033 77.8779 45.9784 77.7955 45.8635C77.7131 45.7487 77.6692 45.5464 77.6692 45.2511V44.8848C77.6692 44.5895 77.7131 44.3817 77.7955 44.2724C77.8779 44.1575 78.0591 44.1029 78.3228 44.1029H79.7069C79.9651 44.1029 80.1409 44.1575 80.2287 44.2669C80.3166 44.3762 80.3606 44.5622 80.3606 44.8301V44.9012L79.7619 45.0925V44.6934H78.2624V45.3823H79.7289C79.998 45.3823 80.1738 45.437 80.2617 45.5519C80.3496 45.6612 80.388 45.869 80.388 46.1643V46.6181C80.399 46.9134 80.3551 47.1157 80.2672 47.2305Z" fill="white"/>
<path d="M91.2246 3.00786C91.2246 1.35246 91.9718 0.600006 93.6123 0.600006C95.2528 0.600006 96 1.35676 96 3.00786C96 4.66326 95.2528 5.42002 93.6123 5.42002C91.9718 5.42002 91.2246 4.66326 91.2246 3.00786ZM95.6393 3.00786C95.6393 1.59754 95.0037 0.956886 93.608 0.956886C92.2123 0.956886 91.5767 1.59324 91.5767 3.00786C91.5767 4.41818 92.2123 5.05884 93.608 5.05884C95.008 5.05884 95.6393 4.41818 95.6393 3.00786ZM94.5743 2.59939C94.5743 3.07236 94.4497 3.26585 94.089 3.33465L94.6301 4.19889C94.6558 4.22469 94.643 4.25049 94.6043 4.25049H94.1577C94.1019 4.25049 94.0804 4.23759 94.0589 4.1946L93.5307 3.36905H93.2644V4.20319C93.2644 4.24189 93.2601 4.24619 93.2258 4.24619H92.792C92.7534 4.24619 92.7491 4.23759 92.7491 4.20319V1.85553C92.7491 1.82973 92.7577 1.81684 92.7878 1.81684C93.0755 1.79104 93.3804 1.78673 93.6552 1.78673C94.3381 1.78673 94.5743 1.97162 94.5743 2.59939ZM93.2644 2.23391V2.98206H93.5994C93.943 2.98206 94.046 2.91757 94.046 2.61659C94.046 2.30701 93.943 2.23391 93.5994 2.23391H93.2644Z" fill="white"/>
</svg>


