<svg width="1000" height="1000" viewBox="0 0 1000 1000" fill="none" xmlns="http://www.w3.org/2000/svg">
<g clip-path="url(#clip0_16_2)">
<g clip-path="url(#clip1_16_2)">
<path d="M952.077 478.281C952.077 472.67 950.092 470.789 944.924 469.968C905.165 463.627 865.451 457.013 825.68 450.741C821.117 450.022 818.675 448.392 817.374 443.898C811.594 424.21 803.711 405.2 793.861 387.198C791.682 383.207 791.876 380.356 794.568 376.535C818.093 343.373 841.344 309.993 864.835 276.819C867.835 272.588 867.55 269.977 863.876 266.385C833.909 236.734 804.072 206.928 774.363 176.966C770.815 173.386 768.397 172.736 764.027 175.917C731.432 199.603 698.587 222.936 665.912 246.622C661.862 249.564 658.839 250.043 654.332 247.545C636.493 237.747 617.647 229.905 598.121 224.156C593.227 222.696 591.276 220.142 590.421 215.284C583.712 175.986 576.662 136.745 570.045 97.424C569.109 91.8133 567.056 90.0114 561.363 90.0456C519.744 90.2623 478.079 90.1597 436.517 90.1597C428.223 90.1597 428.28 90.1597 426.956 98.3021C420.579 137.463 414.099 176.613 407.892 215.763C407.185 220.21 405.234 222.297 401.127 223.483C381.081 229.373 361.7 237.326 343.296 247.215C339.645 249.153 337.056 249.005 333.644 246.542C300.947 223.016 268.044 199.786 235.392 176.157C230.943 172.941 228.41 173.123 224.565 177.012C195.154 206.708 165.579 236.24 135.84 265.609C131.276 270.057 131.447 272.942 134.916 277.846C157.733 309.925 180.106 342.255 202.809 374.38C205.73 378.508 206.631 381.758 203.95 386.537C193.96 404.684 185.954 423.854 180.071 443.716C178.725 448.095 176.443 449.942 171.869 450.684C132.874 456.979 93.9355 463.639 54.9291 469.911C48.9852 470.869 46.943 473.001 46.943 479.285C47.251 520.886 47.194 562.533 46.943 604.078C46.943 609.655 48.4832 611.89 54.2104 612.87C93.7074 619.633 133.125 626.852 172.61 633.705C176.592 634.39 178.394 636.1 179.455 639.784C185.597 660.366 193.895 680.243 204.212 699.084C206.14 702.574 205.718 705.037 203.437 708.207C180.208 740.427 157.075 772.716 134.037 805.072C129.029 812.063 128.983 812.04 134.859 817.925L222.706 905.815C228.193 911.3 228.182 911.266 234.753 906.659C266.801 884.204 298.893 861.83 330.838 839.25C340.248 801.659 361.962 768.291 392.526 744.454C423.09 720.616 460.749 707.677 499.516 707.694C538.275 707.693 575.923 720.642 606.475 744.483C637.028 768.323 658.731 801.688 668.137 839.273C700.53 861.951 732.893 884.695 765.225 907.503C769.458 910.502 772.07 910.228 775.664 906.545C805.213 876.719 834.906 847.039 864.743 817.503C868.999 813.295 869.102 810.546 865.611 805.779C841.732 773.096 818.196 740.173 794.443 707.409C792.23 704.353 791.488 701.89 793.485 698.286C803.632 679.792 811.734 660.248 817.648 640C818.709 636.363 820.569 634.549 824.573 633.865C864.812 626.954 904.993 619.724 945.232 612.825C950.298 611.958 952.077 610.019 952.077 604.842C951.872 562.64 951.872 520.453 952.077 478.281ZM499.71 668.305C430.196 667.37 373.94 613.349 373.769 542.485C373.598 472.978 428.531 416.768 499.39 416.597C568.984 416.426 625.172 471.336 625.343 542.166C625.502 611.684 570.558 667.051 499.71 668.305Z" fill="#83FF00"/>
</g>
</g>
<defs>
<clipPath id="clip0_16_2">
<rect width="905.077" height="820" fill="white" transform="translate(47 90)"/>
</clipPath>
<clipPath id="clip1_16_2">
<rect width="905.077" height="820" fill="white" transform="translate(47 90)"/>
</clipPath>
</defs>
</svg>
