<?xml version="1.0" encoding="utf-8"?>
<!-- Generator: Adobe Illustrator 24.1.1, SVG Export Plug-In . SVG Version: 6.00 Build 0)  -->
<svg version="1.1" id="Layer_1" xmlns="http://www.w3.org/2000/svg" xmlns:xlink="http://www.w3.org/1999/xlink" x="0px" y="0px"
	 viewBox="0 0 1498.2 353.2" style="enable-background:new 0 0 1498.2 353.2;" xml:space="preserve">
<style type="text/css">
	.st0{opacity:0.2;enable-background:new    ;}
	.st1{fill:#FFFFFF;}
	.st2{opacity:0.5;fill:#FFFFFF;enable-background:new    ;}
</style>
<g>
	<circle class="st0" cx="174.1" cy="178.1" r="173.1"/>
	<g>
		<polygon class="st1" points="174.1,318.1 286.2,125 160,291.8 		"/>
		<polygon class="st2" points="335.8,39.4 131.3,238.2 149.7,272.6 		"/>
		<polygon class="st1" points="145.7,150.6 123,111.8 213.8,90.5 52,90.5 121.2,219.5 358.1,1 		"/>
	</g>
</g>
<g>
	<path class="st1" d="M1063,139.2l-14.3,13.8c-14.3-13.8-30.7-20.7-49.2-20.7c-16.4,0-29.7,5.3-40.8,15.9
		c-10.6,10.6-16.4,23.8-16.4,39.2c0,13.8,5.3,25.9,15.9,37.1c10.6,11.1,24.9,16.4,43.4,16.4c27.5,0,45-12.2,52.4-36h-37.6v-19.1
		h59.3c0,9.5-0.5,16.9-2.1,22.8c-1.1,5.8-3.7,12.2-7.9,18.5c-4.2,6.9-9.5,12.7-15.9,18.5c-6.9,5.3-13.8,9.5-21.2,11.6
		c-7.4,2.1-16.9,3.7-27,3.7c-23.8,0-43.4-7.4-57.7-22.8c-14.3-15.4-21.7-32.3-21.7-51.9c0-20.7,7.4-38.1,21.7-52.4
		c14.8-14.3,32.3-21.7,53-21.7c12.2,0,23.8,2.1,33.9,5.8C1041.9,122.3,1052.4,129.1,1063,139.2z"/>
	<path class="st1" d="M1100.1,117.5h19.1v85.3c0,12.7,3.2,22.2,9,29.7c5.8,6.9,14.8,10.6,25.9,10.6s19.6-3.2,25.9-9.5
		c6.4-6.4,9-15.4,9-27v-89h19.1v87.4c0,16.9-4.8,30.7-14.8,40.8c-9.5,10.1-22.8,15.4-38.7,15.4c-16.4,0-29.7-5.3-39.7-15.4
		c-10.1-10.6-14.8-25.4-14.8-45.5L1100.1,117.5L1100.1,117.5z"/>
	<path class="st1" d="M1235.7,117h18.5v139.3h-18.5V117z"/>
	<path class="st1" d="M1285.4,117h33.9c26.5,0,46.6,6.9,59.8,21.2c13.2,14.3,19.6,30.2,19.6,48.2c0,18.5-6.9,34.4-20.1,48.7
		c-13.2,14.3-32.8,21.2-58.8,21.2H1286V117H1285.4z M1304.5,135.5v101.7h1.1c14.3,0,24.9-0.5,31.8-2.1c6.9-1.1,13.8-4.2,20.1-8.5
		c6.4-4.2,11.6-10.1,15.4-16.9c3.7-6.9,5.8-14.8,5.8-23.3c0-10.6-3.2-20.7-9-29.1c-5.8-8.5-13.2-14.3-21.7-17.5
		c-8.5-3.2-19.6-4.2-33.9-4.2C1314,135.5,1304.5,135.5,1304.5,135.5z"/>
	<path class="st1" d="M1418.9,117h77.3V136H1438V171h58.2v18.5H1438v47.7h58.2v18.5h-77.3V117z"/>
	<g>
		<path class="st1" d="M501.2,141.3c1.6,0,2.1,0.5,1.6,2.1l-24.9,88.4c-5.8,21.2-6.4,24.4-21.7,24.4c-14.3,0-15.4-3.2-21.2-24.4
			l-25.9-88.4c-0.5-1.6,0-2.1,1.6-2.1h8.5c1.1,0,1.6,0,2.1,2.1l24.4,85.8c3.7,14.8,4.8,16.4,10.6,16.4c6.4,0,7.4-1.6,11.1-16.4
			l23.8-85.8c0.5-1.6,1.1-2.1,2.1-2.1C493.3,141.3,501.2,141.3,501.2,141.3z"/>
		<path class="st1" d="M611.9,193.2v6.4c0,2.6-0.5,4.2-4.8,4.2h-72c0.5,33.9,6.4,42.4,33.4,42.4h31.8c1.1,0,2.1,1.1,2.1,2.1v4.8
			c0,1.1-0.5,1.6-2.1,2.1c-8.5,1.1-23.8,1.1-31.8,1.1c-37.6,0-44.5-12.2-44.5-58.2c0-46.6,7.4-58.2,44.5-58.2
			C602.9,139.7,611.3,150.9,611.9,193.2z M535.1,193.2h65.7c-0.5-35.5-6.4-43.4-32.3-43.4C540.4,149.8,535.1,158.8,535.1,193.2z"/>
		<path class="st1" d="M687.1,141.3c1.1,0.5,1.6,1.1,1.6,2.1v4.8c0,1.1-1.1,2.1-2.1,2.1h-19.1c-7.9,0-18,1.1-18,12.2v91.1
			c0,1.1-0.5,2.1-2.1,2.1h-7.4c-1.1,0-2.1-0.5-2.1-2.1v-92.7c0-20.7,20.7-20.7,27.5-20.7C671.2,139.7,683.4,140.3,687.1,141.3z"/>
		<path class="st1" d="M775,141.3c1.1,0,1.6,1.1,1.6,2.1v5.3c0,0.5-0.5,1.1-2.1,1.1h-37.6c-8.5,0-21.7,2.1-21.7,14.3v4.2
			c0,8.5,2.1,13.8,14.3,19.1l32.3,13.2c16.4,6.9,19.1,15.9,19.1,27v3.2c0,20.7-11.1,25.4-40.8,25.4c-10.6,0-30.7-0.5-36-1.1
			c-1.6,0-1.6-1.1-1.6-2.1v-4.8c0-1.1,0.5-2.1,2.1-2.1h36c22.2,0,29.1-3.2,29.1-15.4v-3.2c0-7.4-2.6-13.2-13.2-17.5l-33.4-13.8
			c-16.4-6.9-19.6-16.4-19.6-28.1v-4.8c0-22.2,21.7-23.8,36-23.8C746.9,139.7,765.4,140.3,775,141.3z"/>
		<path class="st1" d="M892.5,193.2v6.4c0,2.6-0.5,4.2-4.8,4.2h-72c0.5,33.9,6.4,42.4,33.4,42.4h31.8c1.1,0,2.1,1.1,2.1,2.1v4.8
			c0,1.1-0.5,1.6-2.1,2.1c-8.5,1.1-23.8,1.1-31.8,1.1c-37.6,0-44.5-12.2-44.5-58.2c0-46.6,7.4-58.2,44.5-58.2
			C884.1,139.7,892,150.9,892.5,193.2z M815.7,193.2h65.7c-0.5-35.5-6.4-43.4-32.3-43.4C821.6,149.8,815.7,158.8,815.7,193.2z"/>
	</g>
</g>
</svg>
